<svg xmlns="http://www.w3.org/2000/svg" width="49.884" height="53.043" viewBox="0 0 49.884 53.043"><g transform="translate(0 0)"><g transform="translate(0.01 0.01)"><path d="M20.171-323.622c-.789.378-.839.543-.411,1.118a6.875,6.875,0,0,1,.987,1.875,2.224,2.224,0,0,1-.707-.51,13.657,13.657,0,0,0-2.861-2.121,2.1,2.1,0,0,0-.345.822l-.214.74L18.345-320c.954.921,2.1,2.039,2.565,2.467l.855.789-.345.362a.821.821,0,0,0-.247.641c.329,1,.641.576-2.779,3.667-.789.723-2.417,2.2-3.618,3.289-4.259,3.9-5.065,4.6-5.18,4.687-.148.082-1.464,1.3-5.164,4.687-1.184,1.085-2.417,2.187-2.746,2.467a4.185,4.185,0,0,0-.97,1.266c-.576,1.25-.1,1.447.74.3.444-.608.559-.362.164.395-.312.592-.312.592.049.592a.981.981,0,0,0,.608-.329c.345-.378.608-.428.477-.1-.2.51.28.395,1.1-.247.806-.641.872-.674,1.069-.395a2.634,2.634,0,0,1,.28.461c.033.132,1.348-.559,1.6-.855a7.138,7.138,0,0,1,1.233-.839,1.659,1.659,0,0,1,.082.74c0,.46.066.74.2.74a2.973,2.973,0,0,0,.855-.757c.378-.428.921-1.036,1.217-1.365l.559-.592-.1.608c-.049.345-.148.888-.2,1.2-.1.51-.066.576.23.576a2.976,2.976,0,0,0,1.184-.74,4.529,4.529,0,0,1,.97-.74c.164,0,.345.576.345,1.1,0,.23.1.378.247.378.132,0,.247-.066.247-.148s.148-.214.345-.263a7.7,7.7,0,0,0,1.381-1.1,3.541,3.541,0,0,1,1.2-.888,2.7,2.7,0,0,1,.444.674l.263.592.773-.444a9.334,9.334,0,0,0,1.2-.822c.543-.526.641-.493.641.164,0,.592.3,1.579.46,1.579.214-.016.608-.428.839-.872.28-.51.724-.526.806-.033.033.28.674.74,1.036.74a2.743,2.743,0,0,0,.559-.691c.263-.395.493-.608.543-.493.082.263.691.263.691-.017,0-.131.066-.115.164.049.148.214.181.214.329,0,.1-.164.164-.181.164-.049,0,.28.608.28.691.017.049-.115.28.1.543.493a2.743,2.743,0,0,0,.559.691c.362,0,1-.46,1.036-.74.082-.493.526-.477.806.033.23.444.625.855.839.872.164,0,.46-.987.46-1.579,0-.658.1-.691.641-.164a9.334,9.334,0,0,0,1.2.822l.773.444.263-.592a2.7,2.7,0,0,1,.444-.674,3.541,3.541,0,0,1,1.2.888,7.7,7.7,0,0,0,1.381,1.1c.2.049.345.181.345.263s.115.148.247.148c.148,0,.247-.148.247-.378,0-.526.181-1.1.345-1.1a4.529,4.529,0,0,1,.97.74,2.975,2.975,0,0,0,1.184.74c.3,0,.329-.066.23-.576-.049-.312-.148-.855-.2-1.184l-.1-.625.559.592c.3.329.839.937,1.217,1.365a2.973,2.973,0,0,0,.855.757c.132,0,.2-.28.2-.74a1.659,1.659,0,0,1,.082-.74,7.138,7.138,0,0,1,1.233.839c.247.3,1.562.987,1.6.855a2.633,2.633,0,0,1,.28-.461c.2-.279.263-.247,1.069.395.822.641,1.3.757,1.1.247-.132-.329.132-.28.477.1a.981.981,0,0,0,.608.329c.362,0,.362,0,.049-.592-.395-.756-.28-1,.164-.395.839,1.151,1.316.954.74-.3a4.185,4.185,0,0,0-.97-1.266c-.329-.28-1.562-1.381-2.746-2.467-3.7-3.388-5.016-4.6-5.164-4.687-.115-.082-.921-.789-5.18-4.687-1.2-1.085-2.828-2.565-3.618-3.289-3.437-3.092-3.108-2.664-2.779-3.7a.777.777,0,0,0-.247-.608L29-316.748l.855-.789c.46-.428,1.612-1.546,2.565-2.467l1.727-1.694-.214-.74a2.1,2.1,0,0,0-.345-.822,13.657,13.657,0,0,0-2.861,2.121,2.224,2.224,0,0,1-.707.51,6.875,6.875,0,0,1,.987-1.875c.428-.576.378-.74-.444-1.135L29.807-324l-.329.773c-.2.444-.608,1.414-.921,2.187s-.608,1.431-.625,1.464a13.037,13.037,0,0,1,.033-1.743l.1-1.809-.543-.1c-.954-.2-.987-.181-.987.74,0,.822,0,.839-.312.559a1.474,1.474,0,0,1-.378-.822c-.033-.428-.115-.51-.46-.51s-.428.082-.46.51a1.474,1.474,0,0,1-.378.822c-.312.279-.312.263-.312-.559,0-.921-.033-.937-.987-.74l-.543.1.1,1.809c.049.987.066,1.76.049,1.743-.033-.033-.444-.987-.921-2.121-.46-1.135-.9-2.1-.954-2.154C20.911-323.918,20.549-323.8,20.171-323.622Z" transform="translate(-0.464 324)" fill="#fff"/><path d="M53.691-144.669c-2.039.428-4.884,2.072-5.279,3.026a1.7,1.7,0,0,0-.082.937,3.855,3.855,0,0,0,1.858,1.825c.444.148.608.1,1.464-.411a14.653,14.653,0,0,1,2.927-1.4c.954-.312,20.588-.312,21.542,0a14.653,14.653,0,0,1,2.927,1.4c.855.51,1.02.559,1.464.411a3.855,3.855,0,0,0,1.858-1.825c.263-1.02-.74-2.056-3.124-3.19-2.154-1.02-2.335-1.036-13.978-1.02C56.914-144.915,54.529-144.866,53.691-144.669Z" transform="translate(-40.431 174.367)" fill="#fff"/><path d="M92.749-101.256c-3.6.1-4.012.2-5.591,1.135l-.987.608-.049.855c-.049.822-.016.888.674,1.6.658.641.806.724,1.48.724a1.584,1.584,0,0,0,.855-.164,2.562,2.562,0,0,1,.707-.46c.543-.247,1.283-.28,7.1-.28s6.561.033,7.1.28a2.562,2.562,0,0,1,.707.46,1.584,1.584,0,0,0,.855.164c.674,0,.822-.082,1.48-.724.691-.707.724-.773.674-1.6-.049-.855-.049-.855-1.036-1.464-1.612-.97-2.582-1.151-6.907-1.2C97.748-101.338,94.558-101.305,92.749-101.256Z" transform="translate(-72.024 137.944)" fill="#fff"/><path d="M123.979-57.713a2.7,2.7,0,0,0-1.743,1.809,12.9,12.9,0,0,0-.132,3.059c.049,2.648.181,3.042,1.25,3.766.576.395.658.411,3.651.411s3.075-.016,3.651-.411c1.069-.724,1.2-1.118,1.25-3.766a13.065,13.065,0,0,0-.132-3.075,2.833,2.833,0,0,0-1.924-1.858A21.2,21.2,0,0,0,123.979-57.713Z" transform="translate(-102.086 101.702)" fill="#fff"/></g><path d="M566.436,310.525l.378-.05.8-.042h2.741l.429.042.589.059.421.126.319.143.244.143.219.16.219.168.157.186.262.361.153.23.131.317.077.317.065.59.028.673v.428l-.028,1.807-.062,1-.065.513-.089.4-.124.3-.249.358-.478.408-.523.348-.313.095-.443.055-1.065.04h-3.1l-.906-.035-.443-.055-.264-.07-.229-.114-.214-.144L564.69,319l-.294-.279-.134-.2-.144-.274-.1-.338-.065-.319-.05-.577-.07-1.567v-1.269l.025-.821.075-.731.149-.483.254-.458.249-.313.348-.309.4-.249.363-.154.3-.075Z" transform="translate(-543.811 -266.656)" fill="#fff"/><path d="M553.945,288.1h6.725l1.513.1,1.441.168,1.513.528,1.177.648.312.312.144.312.1.168v1.084l-.186.383-.367.394-.508.459-.35.306-.262.055-.47.055h-.393l-.426-.109-.28-.208-.267-.219-.459-.208-1.749-.153h-.886l-8.232-.011-2.175.087-.47.055-.492.131-.284.164-.295.186-.131.12-.077.055-.415.1h-.7l-.492-.153-.82-.743-.361-.383-.109-.306-.044-.252.044-1.312,1.913-1.126.393-.186.59-.164,1.017-.164,1.487-.077Z" transform="translate(-531.091 -251.436)" fill="#fff"/><path d="M537.938,265.465l7.821,0,5.761.066h.94l1.345.12,1.181.186,1.279.459,1.618.82,1.039.754.689.754.208.492v.328l-.055.426-.153.339-.569.536-.765.568-.481.274h-.353l-.437-.16-.925-.53-.513-.269-.773-.4-.988-.412-.425-.135-2.119-.1-3.751-.092-4.474-.017-4.121.034-4.44.05-2.43.126-.706.252-1.346.648-.513.261-.429.261-.4.227-.4.168-.227.1h-.21l-.513-.2-.5-.345-.757-.748-.286-.5-.059-.311.059-.488.16-.446.689-.7.816-.572,1.573-.833,1.623-.622.563-.135.622-.076,2.371-.118h2.582Z" transform="translate(-517.822 -236.006)" fill="#fff"/><path d="M509.353,193.5l11.609-10.35.844-.957.092-.277-.092-.277-.111-.314V181l.2-.351.351-.406-5.136-4.951.517-1.607.906.536.887.684,1.072.905.813.536-1.33-2.365.092-.3.425-.222.591-.277.351-.111.259.388,1.736,3.954-.185-3.566.813-.166h.406l.24.166v.813l.111.628.3-.388.314-.5v-.425l.185-.3h.37l.3.074.092.406.092.5.185.24.3.3.111-1.219.111-.3h.388l.573.074.406.092-.035,3.565.707-1.816,1.129-2.627,1.408.8.065.154v.139l-.134.224-.12.179-.249.378-.219.353-.164.274-.124.244-.134.284-.08.174-.035.119.249-.09.468-.408.537-.423,1.125-.926.542-.368.319-.214.214-.1.1-.025.1.129.214.582.174.6.07.244-.493.493-1.194,1.144-1.085,1.065-.687.652s-.5.463-.5.478-.513.468-.513.468l-.662.672.423.458.1.214.065.179v.154l-.169.358-.045.239.045.239.259.343,1.607,1.518,2.045,1.841,2.4,2.155,2.448,2.259,3.419,3.035,2.234,2.05,3.279,2.966,1.965,1.8.488.508.348.483.144.319.179.413.08.418-.08.114-.05.045h-.095l-.1-.045-.244-.189-.413-.483-.2-.224-.129-.139-.1-.025.02.2.085.219.129.3.164.219.08.254-.04.1-.09.025h-.114l-.289-.025-.159-.1-.124-.1-.134-.124-.09-.149-.114-.075-.114-.025-.075-.045-.08.02.045.184.035.214-.035.1h-.1l-.179-.055-.358-.169-.622-.423-.149-.124-.229-.129-.139-.134-.174-.08-.134.02-.08.129-.06.134-.089.139-.075.114-.065.09h-.134l-.343-.159-.911-.517-.129-.095-.1-.119-.174-.134-.294-.164-.129-.129-.378-.234-.154-.085-.08-.05-.045.5v.239l-.035.4-.055.2-.055.124h0l-.2-.04-.264-.239-.363-.358-.587-.637-1.294-1.448.378,2.2-.05.1-.085.09h-.194l-.383-.124-1.09-.871-.463-.353-.169-.095h-.124l-.09.164-.149.542v.264l-.055.343-.085.114-.129.03-.154-.03-.1-.114-.025-.07-.05-.085-.154-.065-.194-.085-.164-.095-.229-.179-.289-.259-.279-.244-.323-.274-.254-.2-.328-.3-.314-.229-.234-.144h-.07l-.214.209-.328.672-.109.325h0l-.378-.1-.21-.177-.261-.109-.227-.177-.286-.177-.463-.321-.294-.234-.118-.109-.151-.151h-.2l-.059.151v.521l-.042.32-.067.286-.109.353-.092.227-.067.135-.118.067-.219-.067-.362-.421-.362-.53-.219-.16-.2-.067-.208.067v.22l-.12.24-.208.229-.186.165-.383.121h-.2l-.186-.055-.142-.172-.164-.287-.2-.24-.142-.175-.12-.113L527,199.38l-.088.048-.055.095-.142.067h-.372l-.1-.067-.055-.143h0l-.142.092-.065.118-.073.046h-.055l-.094-.075-.1-.18-.08-.039-.05.13-.06.089-.09.03-.194.025-.134-.025-.1-.067h0l-.1-.095h-.119l-.154.187-.4.537-.234.328-.184.134-.294-.07-.393-.2-.293-.269-.075-.234-.1-.254-.114-.04-.139-.025-.149.065-.134.109-.164.274-.129.2-.11.174-.239.239-.2.144-.139.065-.109-.065-.139-.309-.085-.313-.075-.333-.04-.249v-.239l-.025-.229v-.239l-.095-.124h-.07l-.3.189-.542.468-.522.328-.572.353-.4.2-.1.06-.388-.821-.234-.348-.1-.114-.229.154-.592.473-.353.279-.443.423-.229.164-.189.174-.254.184-.209.144-.149.06-.169.109-.09.114-.03.1-.134.05-.209-.05-.085-.124-.045-.2-.055-.512-.139-.413-.09-.184-.184.07-.8.642-.771.6-.478.174h-.154l-.08-.085-.045-.184.373-2.155-.508.6-1.373,1.488-.294.358-.4.279h-.134l-.065-.1-.04-.284v-.478l-.03-.333-.055-.269-.373.224-.418.318-.308.134-.159.189-.264.219-.343.214-.542.264-.274.095-.139.045-.149-.209-.144-.244-.164-.164-.154.025-.244.139-.348.244-.338.264-.443.308-.383.134-.144-.025v-.144l.05-.179v-.139h-.189l-.169.164-.259.229-.214.119-.239.055-.124.025h-.1l-.079-.025h0v-.149l.115-.164.144-.294.085-.2.09-.169.035-.1v-.109l-.035-.095-.124.04-.124.164-.184.209-.164.259-.224.234-.3.159h-.194l-.04-.214v-.139l.1-.363.184-.4.249-.408.468-.587.607-.552,1.2-1.06.871-.791,2.035-1.871Z" transform="translate(-500.97 -172.969)" fill="#fff"/></g></svg>